<svg width="1240" height="163" viewBox="0 0 1240 163" fill="none" xmlns="http://www.w3.org/2000/svg">
  <path d="M43 106L83 51L106 79L121 63L137 86L147 58L165 83L187 50L233 106L204 86L186 98L171 84L160 109L146 78L129 104L107 87L83 114L43 106Z" fill="#FFFFFF"/>
  <path d="M294 103V52H306.3V103H294Z" fill="#F7FBFF"/>
  <path d="M321.2 103V52H357.4V62.2H333.6V72.7H354.7V82.6H333.6V103H321.2Z" fill="#F7FBFF"/>
  <path d="M372.8 103V62.4H357.7V52H400.3V62.4H385.2V103H372.8Z" fill="#F7FBFF"/>
  <path d="M411.2 103V52H423.6V103H411.2Z" fill="#F7FBFF"/>
  <path d="M438.4 103V52H459.7C465.9 52 471.3 53.2 475.8 55.7C480.4 58.1 483.9 61.5 486.4 65.8C488.9 70.1 490.2 74.9 490.2 80.2C490.2 85.5 488.9 90.3 486.4 94.6C483.9 98.9 480.4 102.3 475.8 104.8C471.3 107.2 465.9 108.4 459.7 108.4H438.4V103ZM450.8 92.8H459.2C462.8 92.8 466 92.2 468.6 90.9C471.2 89.6 473.3 87.7 474.7 85.3C476.2 82.9 476.9 80.2 476.9 77.4C476.9 74.5 476.2 71.9 474.7 69.5C473.3 67 471.2 65.2 468.6 63.9C466 62.6 462.8 61.9 459.2 61.9H450.8V92.8Z" fill="#F7FBFF"/>
  <path d="M504.1 103V52H516.5V103H504.1Z" fill="#F7FBFF"/>
  <path d="M531.3 103V52H543.7V92.6H568.5V103H531.3Z" fill="#F7FBFF"/>
  <path d="M581.3 103V52H593.7V103H581.3Z" fill="#F7FBFF"/>
  <path d="M608.6 103V52H645.9V62.2H621V72.2H643.1V82.1H621V92.8H646.7V103H608.6Z" fill="#F7FBFF"/>
  <path d="M659.8 103V52H681.1C687.2 52 692.5 53.1 696.9 55.4C701.4 57.7 704.8 60.8 707.2 64.9C709.6 69.1 710.9 73.8 710.9 79C710.9 84.2 709.6 88.8 707.2 92.9C704.8 97.1 701.4 100.3 696.9 102.6C692.5 104.8 687.2 106 681.1 106H672.2V103H659.8ZM672.2 92.8H680.5C684.1 92.8 687.1 92.2 689.6 90.9C692.1 89.6 694 87.8 695.3 85.4C696.7 83 697.4 80.3 697.4 77.4C697.4 74.6 696.7 71.9 695.3 69.5C694 67.1 692.1 65.2 689.6 63.9C687.1 62.6 684.1 61.9 680.5 61.9H672.2V92.8Z" fill="#F7FBFF"/>
  <path d="M724.6 103V52H737V103H724.6Z" fill="#F7FBFF"/>
  <path d="M752 103V52H785.6V62.2H764.4V72.7H783.3V82.6H764.4V103H752Z" fill="#F7FBFF"/>
  <path d="M799.2 103V52H811.6V103H799.2Z" fill="#F7FBFF"/>
  <path d="M826.5 103V52H839V92.6H863.8V103H826.5Z" fill="#F7FBFF"/>
  <path d="M876.5 103V52H888.9V103H876.5Z" fill="#F7FBFF"/>
  <path d="M903.8 103V52H916.2V72.5L936.1 52H951.2L930.8 72.7L952.3 103H937.4L922.5 81.6L916.2 88V103H903.8Z" fill="#F7FBFF"/>
  <path d="M962.7 103V52H975.1V103H962.7Z" fill="#F7FBFF"/>
  <path d="M990 103V52H1002.4V92.6H1027.2V103H990Z" fill="#F7FBFF"/>
</svg>
