<svg width="800" height="153" viewBox="0 0 800 153" fill="none" xmlns="http://www.w3.org/2000/svg">
  <rect width="800" height="153" fill="url(#bg)"/>
  <path d="M42 104L79 53L102 82L117 65L133 88L143 59L161 85L180 56L209 103L185 86L167 99L153 85L143 108L132 79L118 103L98 88L74 110L42 104Z" fill="#FFFFFF"/>
  <path d="M254.6 109V43H279.2C288.6 43 296.2 45.4 301.8 49.8C307.4 54.2 310.2 60 310.2 67.2C310.2 72.6 308.6 77 305.2 80.6C301.8 84.2 297 86.6 290.8 87.8L313.2 109H298.9L278.7 89.4H267.5V109H254.6ZM267.5 78.4H279.3C284.3 78.4 288.2 77.4 291 75.4C293.8 73.4 295.2 70.6 295.2 67.1C295.2 63.5 293.8 60.8 291 58.9C288.2 57 284.3 56 279.3 56H267.5V78.4Z" fill="#FFFFFF"/>
  <path d="M321.8 109V43H334.7V109H321.8Z" fill="#FFFFFF"/>
  <path d="M346.7 109V43H359.6L393.5 88.3V43H406V109H393.8L359.2 62.7V109H346.7Z" fill="#FFFFFF"/>
  <path d="M417.5 109V43H430.4V109H417.5Z" fill="#FFFFFF"/>
  <path d="M442.4 109V43H455.3V96.8H495.4V109H442.4Z" fill="#FFFFFF"/>
  <path d="M504.8 109V43H531.2C538.5 43 545 44.4 550.8 47.3C556.6 50.2 561.1 54.2 564.3 59.3C567.5 64.4 569.1 70.1 569.1 76.4C569.1 82.8 567.5 88.5 564.3 93.7C561.1 98.9 556.6 102.9 550.8 105.8C545 108.7 538.5 110.1 531.2 110.1H504.8V109ZM517.7 96.8H531.2C535.9 96.8 540 95.9 543.6 94.1C547.2 92.3 550 89.8 552.1 86.6C554.2 83.4 555.3 79.9 555.3 76.3C555.3 72.8 554.2 69.4 552.1 66.2C550 63 547.2 60.5 543.6 58.7C540 56.9 535.9 56 531.2 56H517.7V96.8Z" fill="#FFFFFF"/>
  <path d="M580.1 109V43H592.9V109H580.1Z" fill="#FFFFFF"/>
  <path d="M604.9 109V43H632.3C639.5 43 645.8 44.4 651.1 47.1C656.4 49.8 660.4 53.4 663.2 57.9C666 62.4 667.4 67.4 667.4 73C667.4 78.7 666 83.8 663.2 88.4C660.4 93 656.4 96.7 651.1 99.4C645.8 102.1 639.5 103.4 632.3 103.4H617.8V109H604.9ZM617.8 91.4H631.9C637.1 91.4 641.2 90.3 644 88C646.8 85.7 648.2 82.4 648.2 78.2C648.2 74.1 646.8 70.8 644 68.5C641.2 66.2 637.1 65.1 631.9 65.1H617.8V91.4Z" fill="#FFFFFF"/>
  <path d="M676 109V43H688.9V109H676Z" fill="#FFFFFF"/>
  <path d="M701 109V43H714V96.8H754.1V109H701Z" fill="#FFFFFF"/>
  <defs>
    <linearGradient id="bg" x1="0" y1="0" x2="800" y2="153" gradientUnits="userSpaceOnUse">
      <stop stop-color="#123B72"/>
      <stop offset="1" stop-color="#1A4C8D"/>
    </linearGradient>
  </defs>
</svg>
